<?xml version="1.0" encoding="utf-8"?>
<!-- Generator: Adobe Illustrator 19.0.0, SVG Export Plug-In . SVG Version: 6.00 Build 0)  -->
<svg version="1.1" id="Group_3_1_" xmlns="http://www.w3.org/2000/svg" xmlns:xlink="http://www.w3.org/1999/xlink" x="0px" y="0px"
	 viewBox="0 0 1366 768" style="enable-background:new 0 0 1366 768;" xml:space="preserve">
<style type="text/css">
	.st0{fill:#3D4248;}
	.st1{font-family:'ProximaNova-Light';}
	.st2{font-size:185.9259px;}
	.st3{letter-spacing:11;}
	.st4{font-family:'ProximaNova-Black';}
	.st5{fill:#FFFFFF;}
	.st6{fill-rule:evenodd;clip-rule:evenodd;fill:#00BFFF;}
</style>
<g id="PharmaTra__e">
	<text transform="matrix(0.9998 0 0 1 68.6012 444.9578)"><tspan x="0" y="0" class="st0 st1 st2 st3">Pharma</tspan><tspan x="672.9" y="0" class="st0 st4 st2 st3">Tra</tspan><tspan x="993.4" y="0" class="st5 st4 st2 st3">  </tspan><tspan x="1110.5" y="0" class="st0 st4 st2 st3">e</tspan></text>
</g>
<g id="Forma_1">
	<g>
		<path class="st6" d="M1167,287.7c0-15.9-6.3-30.9-17.7-42.2c-11.4-11.3-26.5-17.5-42.7-17.5c-16.1,0-31.3,6.2-42.6,17.5
			c-11.4,11.3-17.7,26.3-17.7,42.2l0,131.7c0,15.9,6.3,30.9,17.7,42.2c11.4,11.3,26.5,17.5,42.7,17.5c16.1,0,31.3-6.2,42.7-17.5
			c11.4-11.3,17.7-26.3,17.7-42.2L1167,287.7z M1130.6,443.2c-6.4,6.2-14.8,9.7-23.7,9.8c-18.8,0.1-34.2-15.3-34.2-34l0-58.4
			c0-3.9,3.2-7.1,7.2-7.1l53.6,0c4,0,7.2,3.2,7.2,7.1l0,58.4C1140.7,428,1137.1,436.8,1130.6,443.2z"/>
	</g>
</g>
</svg>
