<?xml version="1.0" encoding="iso-8859-1"?>
<!-- Generator: Adobe Illustrator 19.0.0, SVG Export Plug-In . SVG Version: 6.00 Build 0)  -->
<svg version="1.1" id="Layer_1" xmlns="http://www.w3.org/2000/svg" xmlns:xlink="http://www.w3.org/1999/xlink" x="0px" y="0px"
	 viewBox="0 0 512 512" style="enable-background:new 0 0 512 512;" xml:space="preserve">
<path style="fill:#74D6D0;" d="M260.48,160.681h-3.635c-16.601,0-30.057-13.457-30.057-30.057V98.197H97.124v32.427
	c0,16.599-13.455,30.057-30.057,30.057H63.99c-33.952,0-61.477,27.524-61.477,61.477v196.779c0,33.953,27.525,61.476,61.477,61.476
	h196.49c33.952,0,61.474-27.524,61.474-61.476V222.158C321.955,188.205,294.432,160.681,260.48,160.681z"/>
<path style="fill:#CCF7F5;" d="M167.455,98.197h-70.33v32.427c0,16.599-13.455,30.057-30.057,30.057H63.99
	c-33.952,0-61.477,27.524-61.477,61.477v196.779c0,33.953,27.525,61.476,61.477,61.476h103.465V98.197z"/>
<rect x="2.513" y="250.298" style="fill:#E0E0E0;" width="207.394" height="140.191"/>
<rect x="2.513" y="250.298" style="fill:#F4F4F4;" width="164.946" height="140.191"/>
<path style="fill:#06ABA4;" d="M497.647,436.309c15.787,15.786,15.787,41.381,0,57.169l0,0c-15.787,15.786-41.379,15.786-57.166,0
	l-67.484-67.483c-15.787-15.787-15.787-41.382,0-57.168l0,0c15.787-15.787,41.382-15.787,57.169,0L497.647,436.309z"/>
<path style="fill:#FF8546;" d="M359.9,431.152c22.326,0,40.425,18.099,40.425,40.425l0,0c0,22.325-18.1,40.424-40.425,40.424
	h-95.434c-22.326,0-40.425-18.099-40.425-40.424l0,0c0-22.326,18.099-40.425,40.425-40.425H359.9z"/>
<g>
	<path style="fill:#E03905;" d="M359.9,431.152h-89.133V512H359.9c22.326,0,40.425-18.099,40.425-40.424
		C400.325,449.249,382.226,431.152,359.9,431.152z"/>
	<path style="fill:#E03905;" d="M256.845,79.643c0,16.601-13.457,30.057-30.057,30.057H97.681
		c-16.599,0-30.057-13.457-30.057-30.057V30.057C67.624,13.457,81.081,0,97.681,0h129.108c16.599,0,30.057,13.457,30.057,30.057
		v49.586H256.845z"/>
</g>
<path style="fill:#FF8546;" d="M167.455,109.7H97.681c-16.599,0-30.057-13.457-30.057-30.057V30.057
	C67.624,13.457,81.081,0,97.681,0h69.773V109.7z"/>
<g>
</g>
<g>
</g>
<g>
</g>
<g>
</g>
<g>
</g>
<g>
</g>
<g>
</g>
<g>
</g>
<g>
</g>
<g>
</g>
<g>
</g>
<g>
</g>
<g>
</g>
<g>
</g>
<g>
</g>
</svg>
